<svg xmlns="http://www.w3.org/2000/svg" width="571.929" height="275.175"><path d="M405.423 232.512c16.893 0 30.729-5.78 41.486-17.331 10.759-11.561 16.129-25.041 16.129-40.489 0-15.392-5.09-28.695-15.271-39.948-11.188-12.325-25.302-18.497-42.344-18.497-17.098 0-31.25 6.2-42.456 18.599-10.181 11.253-15.271 24.52-15.271 39.846 0 15.448 5.37 28.929 16.129 40.489 10.758 11.55 24.63 17.331 41.598 17.331zm-30.542-89.229c8.503-8.736 18.665-13.099 30.495-13.099 11.747 0 21.918 4.363 30.439 13.099 8.53 8.744 12.791 19.308 12.791 31.697 0 7.999-1.93 15.457-5.817 22.365-3.86 6.908-9.1 12.241-15.7 15.998-6.591 3.767-13.835 5.65-21.713 5.65-7.887 0-15.141-1.884-21.713-5.65-6.609-3.757-11.85-9.09-15.719-15.998-3.887-6.908-5.816-14.366-5.816-22.365 0-12.389 4.26-22.953 12.753-31.697zM238.096 214.78c10.181 11.821 24.277 17.731 42.307 17.731 8.148 0 15.438-1.24 21.881-3.72 6.441-2.479 12.231-6.078 17.387-10.824 5.156-4.745 9.696-10.973 13.631-18.692l-11.98-6.293c-4.345 7.217-8.381 12.446-12.11 15.682-3.738 3.244-8.27 5.854-13.583 7.803-5.324 1.949-10.815 2.938-16.427 2.938-11.672 0-21.47-4.111-29.404-12.325-7.953-8.214-12.045-18.739-12.315-31.586h99.494c-.149-15.103-4.214-27.707-12.213-37.795-11.253-14.292-26.31-21.452-45.169-21.452-18.292 0-32.919 6.974-43.827 20.939-8.624 10.973-12.922 23.466-12.922 37.506-.002 14.898 5.089 28.257 15.25 40.088zm13.714-74.434c7.803-6.992 17.145-10.479 27.997-10.479 6.582 0 12.847 1.389 18.813 4.167 5.977 2.778 10.768 6.442 14.395 10.973 3.636 4.54 6.396 10.609 8.307 18.198h-82.414c2.908-10.17 7.215-17.787 12.902-22.859zM57.56 232.512c8.129 0 15.42-1.24 21.862-3.72 6.452-2.479 12.25-6.078 17.406-10.824 5.155-4.745 9.705-10.973 13.64-18.692l-11.999-6.293c-4.354 7.217-8.381 12.446-12.119 15.682-3.72 3.244-8.261 5.854-13.584 7.803-5.323 1.949-10.796 2.938-16.427 2.938-11.672 0-21.471-4.111-29.404-12.325-7.943-8.214-12.045-18.739-12.306-31.586h99.484c-.149-15.103-4.214-27.707-12.213-37.795-11.252-14.292-26.29-21.452-45.15-21.452-18.31 0-32.919 6.974-43.845 20.939C4.298 148.158 0 160.651 0 174.691c0 14.898 5.072 28.258 15.252 40.089 10.162 11.822 24.277 17.732 42.308 17.732zm-28.594-92.166c7.804-6.992 17.126-10.479 27.987-10.479a44.105 44.105 0 0 1 18.823 4.167c5.967 2.778 10.768 6.442 14.395 10.973 3.636 4.54 6.396 10.609 8.297 18.198H16.045c2.908-10.17 7.225-17.787 12.921-22.859zM175.624 229.668l49.485-108.331h-15.42l-40.936 87.989-40.638-87.989h-15.308l49.214 108.331zM567.352 139.47c-3.04-7.076-7.767-12.707-14.181-16.921-6.396-4.205-13.732-6.302-21.992-6.302-8.064 0-15.56 1.883-22.459 5.64-6.75 3.664-12.939 9.202-18.58 16.521V8.708L475.483 0V220.98l14.656 8.688v-57.475c.326-5.752.857-10.181 1.604-13.154 2.162-8.4 6.656-15.458 13.472-21.136 6.806-5.687 14.506-8.549 23.12-8.549 7.515 0 13.603 1.855 18.245 5.538 4.643 3.701 7.831 9.201 9.603 16.529 1.007 4.261 1.52 12.772 1.52 25.498v52.748h14.227v-56.916c-.001-15.102-1.521-26.205-4.578-33.281zM0 258.468h571.929v16.707H0z"/></svg>
